<svg width="800" height="600" xmlns="http://www.w3.org/2000/svg">
 <g>
  <title>Layer 1</title>
  <path fill="#ff7f00" d="m760.69489,298.37554l-143.4445,42.63125l0,-85.2171l143.4445,42.58585zm-104.15282,-210.00091l-65.35026,114.90915l-72.11625,-60.29212l137.46651,-54.61703zm-251.34715,-86.96503l51.00309,119.85783l-102.03336,0l51.03026,-119.85783l0.00001,0zm-251.37432,86.96503l137.52086,54.61703l-72.14342,60.29212l-65.37743,-114.90915l-0.00001,0zm-104.12565,210.00091l143.47167,-42.58585l0,85.2171l-143.47167,-42.63125zm104.12565,210.00091l65.37743,-114.86375l72.14342,60.26942l-137.52086,54.59433l0,0l0.00001,0zm251.37432,87.03313l-51.03026,-119.88053l102.03336,0l-51.00309,119.88053l-0.00001,0zm251.34715,-87.03313l-137.49368,-54.57163l72.11625,-60.26942l65.37743,114.84105zm-429.08355,-210.00091l0,0c0,-81.99365 79.58873,-148.48297 177.76357,-148.48297c98.14766,0 177.76357,66.48932 177.76357,148.48297c0,82.01635 -79.61591,148.50567 -177.76357,148.50567c-98.20201,0 -177.76357,-66.48932 -177.76357,-148.50567l0,0z" id="svg_2" stroke="#000"/>
  <path fill="#f4da11" stroke="#000" opacity="NaN" d="m407,296" id="svg_3"/>
  <ellipse fill="#f2cc35" cx="405.50001" cy="297.49999" id="svg_6" rx="177.50001" ry="148.5" stroke="#000"/>
 </g>

</svg>